<?xml version="1.0" standalone="no"?>
<!DOCTYPE svg PUBLIC "-//W3C//DTD SVG 20010904//EN"
 "http://www.w3.org/TR/2001/REC-SVG-20010904/DTD/svg10.dtd">
<svg version="1.0" xmlns="http://www.w3.org/2000/svg"
 width="633.000000pt" height="633.000000pt" viewBox="0 0 633.000000 633.000000"
 preserveAspectRatio="xMidYMid meet">
<metadata>
Created by potrace 1.11, written by Peter Selinger 2001-2013
</metadata>
<g transform="translate(0.000000,633.000000) scale(0.100000,-0.100000)"
fill="#000000" stroke="none">
<path d="M2918 6325 c-1 -2 -42 -6 -89 -9 -47 -4 -96 -9 -110 -11 -37 -6 -89
-13 -144 -20 -27 -4 -100 -17 -162 -31 -61 -13 -122 -25 -135 -28 -13 -2 -43
-9 -68 -16 -25 -7 -53 -14 -64 -16 -82 -16 -496 -147 -543 -173 -10 -5 -21 -9
-26 -9 -60 -3 -631 -267 -865 -400 l-112 -64 2 -2017 3 -2016 30 -54 c34 -63
168 -202 270 -283 134 -105 465 -317 660 -422 28 -15 91 -50 140 -77 142 -77
661 -334 830 -409 28 -12 82 -38 122 -56 39 -19 73 -34 76 -34 3 0 43 -17 89
-39 109 -50 324 -141 335 -141 5 0 38 12 74 26 35 14 69 27 74 28 6 2 23 8 38
14 16 7 30 12 33 12 6 0 273 105 369 145 178 74 353 148 405 172 480 217 869
429 1124 611 189 136 352 304 409 422 l32 65 0 2029 0 2028 -40 22 c-22 11
-61 33 -87 48 -50 30 -333 173 -408 206 -25 11 -72 32 -105 47 -176 78 -405
166 -600 229 -106 34 -309 92 -350 100 -11 3 -81 18 -155 34 -74 17 -153 33
-175 36 -22 3 -57 9 -79 12 -21 3 -47 7 -57 9 -10 2 -49 7 -86 11 -37 3 -79 8
-93 11 -30 5 -557 13 -562 8z"/>
</g>
</svg>
